<?xml version="1.0" encoding="UTF-8"?>
<svg id="Ebene_2" data-name="Ebene 2" xmlns="http://www.w3.org/2000/svg" viewBox="0 0 176.2123260498 132.2524719238">
  <g id="Ebene_2-2" data-name="Ebene 2">
    <g id="Ebene_1-2" data-name="Ebene 1-2">
      <path d="M147.6293792725,36.715259552l-8.8008728027,33.2278404236c-1.6564025879,7.5535964966-8.5065155029,13.046661377-16.2098007202,13.046661377H0l2.0256009102-9.2099914551h120.5931048393c3.4375305176,0,6.4759292603-2.4546661377,7.2143325806-5.8023986816l8.3718109131-31.2621078491h9.4245452881s-.0000152588,0-.0000152588-.0000038147ZM161.8734436035,36.715259552l-9.4145507812,35.961894989c-3.0683288574,13.9397277832-15.6560058594,24.0677337646-29.9349899292,24.0677337646H0l2.0256009102-9.2099914551h120.4983096123c9.9783325195,0,18.7891845703-7.0896072388,20.9395141602-16.8533935547l8.9505615234-33.9662322998h9.4544677734s.004989624-.0000076294.004989624-.0000114441ZM176.212310791,36.715259552l-10.3026275635,40.0430412292c-4.2657318115,19.3429946899-21.7377929688,33.3725204468-41.5397949219,33.3725204468H.0848158002l2.0256008506-9.2099990845h122.2544896603c15.5063095093,0,29.1965866089-10.9911270142,32.5443344116-26.1581878662l9.8735656738-38.0473709106h9.4245300293l.004989624-.0000038147h-.0000152588ZM42.2582206726,63.726600647c-.4190864563,0-.7284164429-.1197395325-.922996521-.3542289734-.1995658875-.2394828796-.2843818665-.5238647461-.254447937-.8681144714l.6685447693-25.4547157288c0-.2344932556.089805603-.4440345764.2744064331-.6286354065s.4091110229-.2744064331.6685447693-.2744064331h4.0212669373c.3691978455,0,.6286354065.0798301697.7882881165.2344894409.1546630859.15965271.2245101929.3941459656.1995658875.7084617615l-.5138816833,16.3145713806,5.318447113-10.1280059814c.1297187805-.2095451355.3143157959-.4340591431.5537986755-.6685447693.2394828796-.2344932556.5537986755-.3542289734.9479408264-.3542289734h2.4796142578c.4190864563,0,.6934928894.1197395325.8282012939.3542289734.1297187805.2394828796.2095451355.4590034485.2394828796.6685447693l1.1026039124,10.3225822449,6.4609680176-16.6288871765c.2095413208-.5537986755.6535797119-.8282012939,1.3370895386-.8282012939h4.2956695557c.3143234253,0,.5188674927.1047706604.6086807251.3143157959.0897979736.2095451355.084815979.4340591431-.0199508667.6685447693l-9.6141204834,25.3798789978c-.1297187805.339263916-.3492393494.6286354065-.6485939026.8681144714-.2993507385.2344932556-.66355896.3542289734-1.082649231.3542289734h-3.2728919983c-.4490242004,0-.753364563-.1097640991-.927986145-.334274292-.1696281433-.2245101929-.2843818665-.4540176392-.334274292-.6885032654l-1.8908920288-12.1785469055-6.4210548401,12.1785507202c-.1297187805.2344894409-.3292884827.4689826965-.593711853.6885032654s-.6036872864.334274292-1.0227813721.334274292h-3.2728919983l.0000114441.0000038147ZM76.8181686401,64.1207427979c-1.9707183838,0-3.6271286011-.3242950439-4.9642181396-.9629096985-1.342086792-.6436042786-2.2850418091-1.5715866089-2.8388366699-2.7789649963s-.6585769653-2.6243019104-.3143234253-4.2557563782c.2644271851-1.1574859619.7184371948-2.180267334,1.3620376587-3.0733261108s1.4468536377-1.7013053894,2.4047775269-2.4247360229c.9579162598-.7234268188,2.0405654907-1.3869857788,3.2529373169-1.9906768799-.843170166-1.1524963379-1.3869857788-2.2052116394-1.6364440918-3.1531524658s-.2694091797-1.9158363342-.0598678589-2.9136695862c.2644271851-1.2073783875.8132324219-2.3249511719,1.6564025879-3.3477287292.843170166-1.0227813721,1.9457702637-1.8559684753,3.3128051758-2.5045585632,1.3670349121-.6436042786,2.9436035156-.9629096985,4.7297286987-.9629096985,1.6813430786,0,3.0483779907.3093299866,4.0961074829.927986145,1.0527114868.6186561584,1.7861251831,1.4368782043,2.2052078247,2.4646492004.419090271,1.0227813721.498916626,2.1403503418.2394790649,3.3477287292-.2394790649,1.0776596069-.6835098267,2.0405654907-1.342086792,2.8937187195-.6585769653.8531455994-1.4867706299,1.6214790344-2.4796142578,2.3049964905-.997833252.6835174561-2.100440979,1.337097168-3.3128051758,1.9707183838l4.0961074829,5.1637840271c.3392562866-.4490242004.7932739258-1.0626907349,1.3620376587-1.8509788513.5637817383-.7882881165,1.1375274658-1.8010902405,1.7162704468-3.0334129333.1546630859-.4190864563.4739685059-.6286354065.9479370117-.6286354065h3.4275512695c.2394790649,0,.4091186523.0698471069.513885498.2145347595.1047744751.1446876526.1297149658.334274292.079826355.5737533569-.1047744751.498916626-.3392562866,1.082649231-.7084579468,1.7511978149-.3692016602.6685447693-.8082427979,1.3720207214-1.3171386719,2.1104202271-.513885498.7383995056-1.0626907349,1.4568367004-1.6564025879,2.1702842712-.593711853.7084617615-1.1874237061,1.3670310974-1.7911071777,1.9707183838l3.3876419067,4.3355865479c.1546630859.1846008301.2095413208.3791770935.1546630859.593711853-.0249481201.2095451355-.1247253418.3791770935-.2943572998.5138816833s-.3741836548.1995658875-.6086807251.1995658875h-4.5301589966c-.2644271851,0-.4689788818-.0448989868-.6086807251-.1396942139-.1446838379-.089805603-.2694091797-.1796112061-.3741836548-.254447937l-1.5366668701-1.8908920288c-1.2323226929.8681144714-2.5544509888,1.5316734314-3.9613952637,1.9906768799-1.4069519043.4590072632-2.933631897.6885032654-4.5900268555.6885032654l-.0199508667-.0199661255ZM77.80103302,59.5855941772c.8381729126,0,1.6813430786-.1396942139,2.51953125-.414100647.843170166-.2744064331,1.6564025879-.7284164429,2.4446868896-1.3570518494l-4.609992981-5.7125930786c-.8930587769.4490242004-1.7013092041.9778747559-2.4247360229,1.5965309143s-1.177444458,1.3620452881-1.3620376587,2.2251663208c-.1546630859.7633399963-.0897979736,1.4169197083.1995620728,1.9707183838.2893753052.5537986755.7234268188.9728851318,1.3021697998,1.2622566223s1.2223434448.4340591431,1.9308013916.4340591431l.0000152588-.0049858093ZM80.7596054077,46.3892555237c.7334060669-.3691978455,1.4069442749-.7284164429,2.010635376-1.082649231s1.1175765991-.748374939,1.5366668701-1.182434082.6934967041-.922996521.8282012939-1.4767913818c.1546630859-.8132324219.0199508667-1.4568367004-.414100647-1.930809021-.4340515137-.4739685059-1.0726699829-.7084617615-1.9108505249-.7084617615-.763343811,0-1.4867706299.2394828796-2.1702880859.7084617615s-1.1026077271,1.1175727844-1.262260437,1.930809021c-.1047744751.5238647461-.0598678589,1.0726699829.1396942139,1.6364440918.1945800781.5637741089.6086807251,1.267250061,1.2423019409,2.1104164124v-.0049858093ZM105.8950195312,64.1207427979c-2.5245132446,0-4.5900268555-.3642120361-6.2065200806-1.082649231-1.6164932251-.7234268188-2.7739715576-1.681350708-3.4674682617-2.8787460327-.6934967041-1.1924095154-.9379653931-2.4646492004-.7284240723-3.8017463684.0249481201-.2095451355.1247253418-.3991355896.2943572998-.5687637329s.3741836548-.254447937.6086807251-.254447937h4.2956695557c.3392562866,0,.593711853.074836731.748374939.2145347595.1546630859.1446876526.2993545532.3242950439.4340515137.5338401794.079826355.4490242004.2843856812.8780937195.6086807251,1.3021736145s.8082427979.7683334351,1.436882019,1.0427322388c.6336288452.2744064331,1.4318847656.414100647,2.4047775269.414100647,1.7312393188,0,3.098274231-.2744064331,4.0961074829-.8282012939s1.601524353-1.3021736145,1.8110656738-2.2451248169c.1546630859-.6835174561.0548782349-1.2323226929-.3143234253-1.6564025879-.3692016602-.4190864563-1.0177841187-.7982673645-1.9507675171-1.1425209045-.9329681396-.339263916-2.1603088379-.7084617615-3.6869888306-1.1026039124-1.8908920288-.4190864563-3.4425201416-1.0078086853-4.6498947144-1.7561836243s-2.0405654907-1.6863365173-2.5045623779-2.8188781738c-.4589996338-1.1325378418-.5188674927-2.4846038818-.174621582-4.0611801147.498916626-2.3648643494,1.761177063-4.2357978821,3.7817840576-5.6128120422,2.0255966187-1.3770103455,4.6499023438-2.0705032349,7.8828811646-2.0705032349,1.6813430786,0,3.1581420898.2344894409,4.4353637695.7084617615s2.3399200439,1.092628479,3.1930618286,1.8509788513c.8531494141.7633399963,1.4618225098,1.5765762329,1.8310241699,2.4446907043s.4839477539,1.7062950134.3542327881,2.5245170593c-.0249481201.2095451355-.1247253418.3991355896-.2943572998.5687637329s-.3741836548.254447937-.6086807251.254447937h-4.4952316284c-.2644271851,0-.4839477539-.0498924255-.668548584-.1546630859s-.329284668-.2893714905-.4340515137-.5537986755c0-.6835174561-.334274292-1.2822151184-1.0078125-1.7911071777-.668548584-.5138816833-1.5715866089-.7683334351-2.6991424561-.7683334351-1.2872085571,0-2.3798370361.2394828796-3.2728881836.7084617615s-1.4568328857,1.1924095154-1.6963119507,2.1652984619c-.1297149658.6336212158-.0448989868,1.1624755859.254447937,1.5965309143.2993545532.4340591431.8681182861.8132324219,1.6963119507,1.1425209045.8282012939.3292884827,1.9607391357.6934928894,3.4076004028,1.082649231,2.2101974487.4739685059,3.9564056396,1.0776596069,5.2436065674,1.8110656738s2.1603088379,1.6564025879,2.6193084717,2.7590065002.5188674927,2.4446907043.1796112061,4.0212669373c-.5537948608,2.6243019104-1.9158401489,4.6149787903-4.0961074829,5.9720306396-2.1802597046,1.3520622253-5.0689926147,2.0305938721-8.6711730957,2.0305938721h.0099945068ZM31.8857517242,61.3367919922H7.3739852905c-2.7440404892,0-4.9342837334-2.2251663208-4.9342837334-4.9342842102v-29.0070018768c0-1.3121509552.5188732147-2.5594425201,1.4618253708-3.5023937225L23.9479904175,3.8416566849c.9130172729-.9130170345,2.1353626251-1.4318900108,3.4425239563-1.4318900108h36.5655860901c1.3121490479,0,2.5594406128.5188732147,3.5023956299,1.4618253708l20.021522522,20.0215163231c.9429550171.9429512024,1.4618225098,2.1652984619,1.4618225098,3.5023937225l-.0249481201,4.4952373505h2.439704895l.0249481201-4.4952392578c0-1.9806995392-.763343811-3.8416576385-2.1652984619-5.2086868286L69.1997146606,2.1652975082c-1.4019546509-1.4019552469-3.2629089355-2.1652975082-5.2086906433-2.1652975082H27.4254379272c-1.9507637024,0-3.7767982483.7633421421-5.1787528992,2.1353626251L2.1652975082,22.1818256378c-1.4019552469,1.4019565582-2.1652975082,3.2629146576-2.1652975082,5.2086868286v29.0070018768c0,4.0811386108,3.3227834702,7.3739852905,7.3739852905,7.3739852905h23.9829139709l.5338401794-2.4397010803-.0049877167.0049934387ZM23.9180545807,14.0145626068c4.0229415894,0,7.2841815948,3.2612380981,7.2841815948,7.2841815948s-3.2612400055,7.2841815948-7.2841815948,7.2841815948-7.2841815948-3.2612400055-7.2841815948-7.2841815948,3.2612400055-7.2841806412,7.2841815948-7.2841815948ZM67.4335479736,14.0145626068c4.0229415894,0,7.2841796875,3.2612380981,7.2841796875,7.2841815948s-3.2612457275,7.2841815948-7.2841796875,7.2841815948-7.2841796875-3.2612400055-7.2841796875-7.2841815948,3.2612380981-7.2841806412,7.2841796875-7.2841815948ZM48.3599739075,14.0195522308c-4.0212669373,0-7.2841796875,3.2579250336-7.2841796875,7.2841815948s3.2629127502,7.2841815948,7.2841796875,7.2841815948,7.2841796875-3.2629146576,7.2841796875-7.2841796875-3.2629127502-7.2841806412-7.2841796875-7.2841835022ZM48.3599739075,26.198102951c-2.7041282654,0-4.894367218-2.1902427673-4.894367218-4.8943710327s2.1902427673-4.8943710327,4.8943710327-4.8943710327,4.8943710327,2.1902427673,4.8943710327,4.8943710327-2.1902427673,4.8943710327-4.8943748474,4.8943710327ZM23.9180545807,38.7009506226c-4.0212669373,0-7.2841815948,3.2579231262-7.2841815948,7.2841796875s3.2629146576,7.2841796875,7.2841796875,7.2841796875,7.2841796875-3.2629127502,7.2841796875-7.2841796875-3.2579231262-7.2841796875-7.2841777802-7.2841796875ZM23.9180545807,50.9094352722c-2.7190952301,0-4.9243049622-2.2052116394-4.9243049622-4.9243049622s2.2052097321-4.9243087769,4.9243049622-4.9243087769,4.9243049622,2.2052078247,4.9243049622,4.9243087769-2.2052097321,4.9243087769-4.9243049622,4.9243049622ZM5.4432144165,132.2524719238c-1.1166992188,0-2.0268554688-.1938476562-2.73046875-.5825195312-.7041015625-.3881835938-1.1923828125-.9497070312-1.4653320312-1.6840820312-.2734375-.7338867188-.3188476562-1.6108398438-.13671875-2.6298828125.0971679688-.5219726562.2094726562-1.0834960938.3369140625-1.6840820312s.2573242188-1.1674804688.3911132812-1.7016601562c.2426757812-1.0073242188.658203125-1.8686523438,1.2470703125-2.5849609375.5883789062-.7158203125,1.3198242188-1.2680664062,2.193359375-1.6567382812.8735351562-.3881835938,1.8569335938-.58203125,2.9487304688-.58203125.8857421875,0,1.638671875.1181640625,2.2573242188.3544921875.619140625.2368164062,1.1103515625.5405273438,1.474609375.91015625.3637695312.3706054688.6123046875.7680664062.74609375,1.1923828125.1333007812.4252929688.169921875.8193359375.109375,1.1831054688-.0122070312.109375-.0639648438.2006835938-.1547851562.2734375s-.197265625.1088867188-.318359375.1088867188h-1.875c-.109375,0-.19140625-.0239257812-.24609375-.0727539062-.0541992188-.0483398438-.1000976562-.12109375-.1362304688-.2182617188-.0244140625-.2548828125-.1123046875-.5068359375-.2641601562-.7553710938s-.3881835938-.4580078125-.7099609375-.6279296875c-.3212890625-.169921875-.76171875-.2548828125-1.3193359375-.2548828125-.8256835938,0-1.5322265625.2182617188-2.1206054688.6552734375-.5888671875.4365234375-1.0043945312,1.1586914062-1.2470703125,2.166015625-.1337890625.5219726562-.2578125,1.052734375-.373046875,1.5927734375-.1157226562.5400390625-.2216796875,1.0771484375-.3188476562,1.6108398438-.169921875,1.0317382812-.0517578125,1.7719726562.3549804688,2.220703125.4067382812.44921875,1.0224609375.673828125,1.84765625.673828125.5463867188,0,1.0556640625-.0971679688,1.529296875-.2915039062.4731445312-.1938476562.8764648438-.4975585938,1.2104492188-.91015625.3334960938-.412109375.5668945312-.9404296875.7006835938-1.5834960938l.1274414062-.564453125h-2.2387695312c-.1215820312,0-.212890625-.0424804688-.2734375-.1274414062-.060546875-.0844726562-.0791015625-.1938476562-.0546875-.3276367188l.2006835938-.96484375c.0239257812-.1333007812.087890625-.2421875.1909179688-.3276367188.1030273438-.0844726562.2153320312-.1274414062.3369140625-.1274414062h4.3500976562c.1337890625,0,.23046875.04296875.2915039062.1274414062.060546875.0854492188.0786132812.1943359375.0546875.3276367188l-.400390625,1.9116210938c-.2065429688,1.0190429688-.61328125,1.8994140625-1.2197265625,2.6391601562-.6069335938.7407226562-1.3623046875,1.310546875-2.2661132812,1.7114257812-.904296875.400390625-1.9145507812.6005859375-3.0307617188.6005859375ZM15.1634292603,132.0703430176c-.1215820312,0-.2124023438-.0424804688-.2729492188-.1274414062-.0610351562-.0849609375-.0791015625-.1879882812-.0546875-.3095703125l2.51171875-11.8500976562c.0244140625-.1333007812.087890625-.2426757812.19140625-.3276367188.1030273438-.0844726562.2153320312-.1274414062.3364257812-.1274414062h4.71484375c1.4682617188,0,2.5541992188.33984375,3.2583007812,1.01953125.7036132812.6796875.916015625,1.6684570312.6372070312,2.9672851562-.1943359375.8979492188-.5708007812,1.64453125-1.12890625,2.2387695312-.5581054688.5947265625-1.2436523438,1.025390625-2.056640625,1.2924804688l1.6743164062,4.6416015625c.0122070312.0366210938.0185546875.0698242188.0185546875.1000976562s-.0063476562.0639648438-.0185546875.1000976562c-.0122070312.109375-.06640625.2001953125-.1635742188.2729492188s-.1943359375.109375-.2915039062.109375h-1.65625c-.2065429688,0-.3491210938-.0546875-.427734375-.1640625-.0791015625-.1088867188-.142578125-.2182617188-.1909179688-.3276367188l-1.419921875-4.3139648438h-2.5302734375l-.9282226562,4.3686523438c-.0244140625.1215820312-.0883789062.224609375-.19140625.3095703125s-.2216796875.1274414062-.3549804688.1274414062h-1.65625ZM18.731300354,125.2080459595h2.5483398438c.7397460938,0,1.3286132812-.1669921875,1.765625-.5009765625.4370117188-.3334960938.7158203125-.8037109375.8374023438-1.4106445312.1333007812-.6064453125.0571289062-1.0830078125-.2275390625-1.4287109375-.2856445312-.345703125-.8041992188-.5190429688-1.556640625-.5190429688h-2.56640625l-.80078125,3.859375ZM33.3841323853,132.2524719238c-.7768554688,0-1.474609375-.1000976562-2.0932617188-.3002929688-.619140625-.2001953125-1.1259765625-.5068359375-1.5200195312-.9194335938-.39453125-.4125976562-.6552734375-.9375-.7827148438-1.5747070312-.1274414062-.63671875-.1000976562-1.3920898438.0815429688-2.2661132812l1.5654296875-7.4086914062c.0244140625-.1333007812.087890625-.2426757812.19140625-.3276367188.1030273438-.0844726562.2153320312-.1274414062.3369140625-.1274414062h1.65625c.1333007812,0,.23046875.04296875.2915039062.1274414062.060546875.0849609375.0786132812.1943359375.0541992188.3276367188l-1.5834960938,7.4086914062c-.2065429688.9951171875-.1577148438,1.732421875.1455078125,2.2119140625s.91015625.71875,1.8203125.71875c.8740234375,0,1.595703125-.2392578125,2.166015625-.71875s.9584960938-1.216796875,1.1650390625-2.2119140625l1.583984375-7.4086914062c.0239257812-.1333007812.0908203125-.2426757812.2001953125-.3276367188.1088867188-.0844726562.2241210938-.1274414062.345703125-.1274414062h1.6381835938c.1333007812,0,.23046875.04296875.2915039062.1274414062.060546875.0849609375.0786132812.1943359375.0546875.3276367188l-1.5659179688,7.4086914062c-.3759765625,1.7475585938-1.0493164062,3.0278320312-2.0205078125,3.8408203125-.970703125.8129882812-2.3115234375,1.2197265625-4.0224609375,1.2197265625ZM43.0315933228,132.0703430176c-.1337890625,0-.2338867188-.0424804688-.3002929688-.1274414062-.0668945312-.0849609375-.0883789062-.1879882812-.0634765625-.3095703125l2.5297851562-11.8500976562c.0244140625-.1333007812.0849609375-.2426757812.1821289062-.3276367188.0971679688-.0844726562.2124023438-.1274414062.3461914062-.1274414062h4.6596679688c.7158203125,0,1.3559570312.0849609375,1.9204101562.2548828125.564453125.1704101562,1.0283203125.4248046875,1.392578125.7646484375s.6157226562.76171875.7553710938,1.2651367188c.1396484375.50390625.13671875,1.0893554688-.0092773438,1.7563476562-.291015625,1.3471679688-.8857421875,2.3515625-1.7836914062,3.0126953125-.8979492188.6616210938-2.0874023438.9921875-3.5678710938.9921875h-2.912109375l-.91015625,4.2592773438c-.0249023438.1215820312-.0854492188.224609375-.1821289062.3095703125-.0971679688.0849609375-.2124023438.1274414062-.3461914062.1274414062h-1.7109375ZM46.5813980103,125.353553772h2.56640625c.6674804688,0,1.2470703125-.1665039062,1.73828125-.5004882812.4916992188-.333984375.8100585938-.8286132812.9555664062-1.4838867188.0849609375-.412109375.1030273438-.7670898438.0546875-1.064453125s-.208984375-.5307617188-.482421875-.701171875c-.2729492188-.1694335938-.7006835938-.2548828125-1.283203125-.2548828125h-2.6938476562l-.85546875,4.0048828125ZM56.5013198853,132.0703430176c-.1337890625,0-.2338867188-.0424804688-.3002929688-.1274414062-.0668945312-.0849609375-.0883789062-.1879882812-.0634765625-.3095703125l2.5297851562-11.8500976562c.0244140625-.1333007812.0849609375-.2426757812.1821289062-.3276367188.0971679688-.0844726562.2124023438-.1274414062.3461914062-.1274414062h4.6596679688c.7158203125,0,1.3559570312.0849609375,1.9204101562.2548828125.564453125.1704101562,1.0283203125.4248046875,1.392578125.7646484375s.6157226562.76171875.7553710938,1.2651367188c.1396484375.50390625.13671875,1.0893554688-.0092773438,1.7563476562-.291015625,1.3471679688-.8857421875,2.3515625-1.7836914062,3.0126953125-.8979492188.6616210938-2.0874023438.9921875-3.5678710938.9921875h-2.912109375l-.91015625,4.2592773438c-.0249023438.1215820312-.0854492188.224609375-.1821289062.3095703125-.0971679688.0849609375-.2124023438.1274414062-.3461914062.1274414062h-1.7109375ZM60.0511245728,125.353553772h2.56640625c.6674804688,0,1.2470703125-.1665039062,1.73828125-.5004882812.4916992188-.333984375.8100585938-.8286132812.9555664062-1.4838867188.0849609375-.412109375.1030273438-.7670898438.0546875-1.064453125s-.208984375-.5307617188-.482421875-.701171875c-.2729492188-.1694335938-.7006835938-.2548828125-1.283203125-.2548828125h-2.6938476562l-.85546875,4.0048828125ZM69.971534729,132.0703430176c-.1337890625,0-.2338867188-.0424804688-.3002929688-.1274414062-.0668945312-.0849609375-.0883789062-.1879882812-.0634765625-.3095703125l2.5297851562-11.8500976562c.0244140625-.1333007812.0849609375-.2426757812.1821289062-.3276367188.0971679688-.0844726562.2124023438-.1274414062.3461914062-.1274414062h8.0092773438c.1333007812,0,.2299804688.04296875.291015625.1274414062.060546875.0849609375.0786132812.1943359375.0546875.3276367188l-.2548828125,1.2016601562c-.0244140625.12109375-.0849609375.224609375-.1821289062.3095703125s-.2124023438.126953125-.345703125.126953125h-5.9887695312l-.6918945312,3.2221679688h5.5883789062c.1333007812,0,.23046875.0395507812.2915039062.1181640625.060546875.0791015625.0786132812.1850585938.0541992188.3188476562l-.236328125,1.1284179688c-.0244140625.1337890625-.0849609375.2397460938-.1821289062.318359375-.0971679688.0791015625-.2124023438.1186523438-.345703125.1186523438h-5.5883789062l-.7280273438,3.3310546875h6.15234375c.1333007812,0,.23046875.0424804688.2915039062.1274414062.060546875.0849609375.0786132812.1943359375.0541992188.3276367188l-.2543945312,1.201171875c-.0249023438.1215820312-.0854492188.224609375-.1821289062.3095703125-.0971679688.0849609375-.2124023438.1274414062-.3461914062.1274414062h-8.1547851562Z"/>
    </g>
  </g>
</svg>